<svg width="116" height="89" viewBox="0 0 116 89" fill="none" xmlns="http://www.w3.org/2000/svg">
<path d="M113.897 36.3997C107.514 66.111 84.4402 82.8456 62.1024 87.3549C53.9918 88.9921 45.6393 88.9239 37.5554 87.1545C19.5625 83.1964 4.90791 70.8208 1.49588 52.8336C-2.55438 31.4895 10.0137 20.5669 20.348 18.7131C31.2714 16.5837 41.0656 23.0471 42.8576 32.0156C44.3795 40.5081 39.3719 45.0676 35.4935 45.769C33.8803 46.1697 32.1778 45.9158 30.7445 45.0606C29.3113 44.2054 28.2593 42.8158 27.8103 41.1845C27.1966 37.8527 28.473 37.3516 27.8103 33.8694C27.6089 32.4774 26.9917 31.1827 26.0429 30.1618C24.9462 29.1853 23.6003 28.5468 22.1619 28.3206C20.7234 28.0944 19.2516 28.2898 17.9178 28.8841C15.4631 29.786 9.76821 33.2181 11.0938 43.9152C11.3547 46.1978 12.1003 48.395 13.2784 50.3535C14.2226 51.8416 15.3532 53.1975 16.6414 54.3868C19.3824 56.7984 22.6459 58.5103 26.1627 59.3815C29.6795 60.2526 33.3488 60.258 36.8681 59.3972C39.3295 58.9123 41.7213 58.1127 43.9867 57.0173C54.1737 52.0069 60.2368 41.3349 59.5495 28.2578C59.4784 27.4583 59.5876 26.6528 59.8686 25.903C60.5852 24.4244 61.4934 23.0509 62.5688 21.8195C71.4402 12.5354 82.5995 5.86311 94.8727 2.50461C100.456 0.89605 106.268 0.277474 112.056 0.675832C113.136 0.675832 114.019 1.12676 114.216 2.12883C114.51 3.73215 114.682 5.38556 114.854 7.13919C116.069 16.8822 115.745 26.761 113.897 36.3997Z" fill="url(#paint0_linear)"/>
<defs>
<linearGradient id="paint0_linear" x1="105.624" y1="-7.04011" x2="17.5666" y2="78.9488" gradientUnits="userSpaceOnUse">
<stop stop-color="#11C4D1"/>
<stop offset="1" stop-color="#0062AD"/>
</linearGradient>
</defs>
</svg>
